<svg fill="none" height="90" viewBox="0 0 90 90" width="90" xmlns="http://www.w3.org/2000/svg">
    <rect fill="#EDF2F8" height="90" rx="6" width="90" />
    <rect fill="white" height="39" rx="4" width="39" x="25" y="26" />
    <path
        d="M38.4222 38.5296C39.6156 36.8125 42.1555 36.8125 43.349 38.5296L51.2294 49.8672C52.612 51.8565 51.1885 54.5795 48.766 54.5795H33.0052C30.5827 54.5795 29.1592 51.8565 30.5418 49.8672L38.4222 38.5296Z"
        fill="#EDF2F8" />
    <path
        d="M49.8922 43.2068C50.6872 42.054 52.3901 42.054 53.1851 43.2068L58.8219 51.3806C59.7369 52.7074 58.7871 54.5161 57.1754 54.5161H45.9018C44.2902 54.5161 43.3404 52.7074 44.2554 51.3806L49.8922 43.2068Z"
        fill="#EDF2F8" />
    <path
        d="M50.7777 38.156C50.7777 39.3467 49.8125 40.312 48.6217 40.312C47.431 40.312 46.4658 39.3467 46.4658 38.156C46.4658 36.9653 47.431 36 48.6217 36C49.8125 36 50.7777 36.9653 50.7777 38.156Z"
        fill="#EDF2F8" />
</svg>
