<svg fill="none" height="180" viewBox="0 0 346 180" width="346" xmlns="http://www.w3.org/2000/svg">
    <rect fill="#EDF2F8" height="180" rx="10" width="346" />
    <rect fill="white" height="78" rx="14" width="80.5612" x="133" y="51" />
    <path
        d="M160.726 76.0591C163.191 72.6251 168.438 72.625 170.903 76.0591L187.181 98.7345C190.037 102.713 187.097 108.159 182.093 108.159H149.536C144.532 108.159 141.591 102.713 144.448 98.7345L160.726 76.0591Z"
        fill="#EDF2F8" />
    <path
        d="M184.419 85.4135C186.061 83.108 189.579 83.108 191.221 85.4135L202.865 101.761C204.755 104.415 202.793 108.032 199.464 108.032H176.176C172.847 108.032 170.885 104.415 172.775 101.761L184.419 85.4135Z"
        fill="#EDF2F8" />
    <path
        d="M186.248 75.312C186.248 77.6934 184.254 79.6239 181.795 79.6239C179.335 79.6239 177.341 77.6934 177.341 75.312C177.341 72.9305 179.335 71 181.795 71C184.254 71 186.248 72.9305 186.248 75.312Z"
        fill="#EDF2F8" />
</svg>
