<svg fill="none" height="26" viewBox="0 0 25 26" width="25" xmlns="http://www.w3.org/2000/svg">
    <ellipse cx="12.193" cy="12.8" fill="#162447" rx="12.193" ry="12.8" />
    <path
        d="M7.45159 17.0982C6.78635 17.0925 6.25198 16.8778 5.84847 16.4542C5.45042 16.0363 5.25139 15.4239 5.25139 14.6167C5.25139 14.1302 5.10144 13.8039 4.80153 13.6379L4.6952 13.595C4.61341 13.5434 4.55616 13.4948 4.52344 13.449C4.49072 13.3975 4.47437 13.3288 4.47437 13.2429V12.9252C4.47437 12.8451 4.49072 12.7793 4.52344 12.7277C4.56161 12.6762 4.61886 12.6276 4.6952 12.5818L4.80153 12.5303C5.10144 12.37 5.25139 12.0466 5.25139 11.56C5.25139 10.7529 5.45042 10.1404 5.84847 9.72253C6.24652 9.30466 6.77817 9.09 7.44341 9.07855H7.49249C7.54156 9.07855 7.58246 9.09859 7.61517 9.13866C7.65334 9.173 7.67243 9.21593 7.67243 9.26745V10.0488C7.67243 10.1003 7.65607 10.1433 7.62335 10.1776C7.59064 10.2119 7.55247 10.232 7.50884 10.2377H7.47613C7.1326 10.2663 6.8845 10.3923 6.73182 10.6155C6.5846 10.833 6.51098 11.1908 6.51098 11.6888C6.51098 12.038 6.45373 12.3385 6.33922 12.5904C6.23016 12.8365 6.08567 13.0025 5.90572 13.0884C6.08567 13.1742 6.23016 13.346 6.33922 13.6036C6.45373 13.8611 6.51098 14.1559 6.51098 14.4879C6.51098 14.986 6.5846 15.3466 6.73182 15.5698C6.87905 15.7873 7.12442 15.9104 7.46795 15.939L7.50884 15.9476C7.55247 15.9476 7.59064 15.9648 7.62335 15.9991C7.65607 16.0392 7.67243 16.085 7.67243 16.1365V16.9093C7.67243 16.9665 7.65334 17.0123 7.61517 17.0467C7.58246 17.081 7.54156 17.0982 7.49249 17.0982H7.45159Z"
        fill="white" />
    <path
        d="M10.4813 15.7415C9.35255 15.7415 8.78818 15.1777 8.78818 14.05V12.4015H8.15021C8.09023 12.4015 8.03842 12.3814 7.9948 12.3414C7.95663 12.3013 7.93755 12.2498 7.93755 12.1868V11.4913C7.93755 11.4283 7.95663 11.3768 7.9948 11.3368C8.03842 11.2967 8.09023 11.2767 8.15021 11.2767H8.78818V9.85991C8.78818 9.79694 8.80727 9.74542 8.84544 9.70535C8.88906 9.66529 8.93814 9.64525 8.99266 9.64525H9.94145C10.0014 9.64525 10.0505 9.66529 10.0887 9.70535C10.1268 9.74542 10.1459 9.79694 10.1459 9.85991V11.2767H11.1683C11.2283 11.2767 11.2774 11.2967 11.3156 11.3368C11.3592 11.3768 11.381 11.4283 11.381 11.4913V12.1868C11.381 12.2498 11.3592 12.3013 11.3156 12.3414C11.2774 12.3814 11.2283 12.4015 11.1683 12.4015H10.1459V13.9298C10.1459 14.3534 10.3013 14.5652 10.6121 14.5652H11.2419C11.3019 14.5652 11.351 14.5853 11.3892 14.6253C11.4273 14.6654 11.4464 14.7169 11.4464 14.7799V15.5269C11.4464 15.5841 11.4273 15.6357 11.3892 15.6814C11.351 15.7215 11.3019 15.7415 11.2419 15.7415H10.4813Z"
        fill="white" />
    <path
        d="M14.242 15.8274C13.6259 15.8274 13.1269 15.6557 12.7452 15.3122C12.3636 14.9631 12.1591 14.4794 12.1318 13.8611L12.1236 13.5177L12.1318 13.1656C12.1536 12.5474 12.3554 12.0637 12.7371 11.7146C13.1242 11.3654 13.6259 11.1908 14.242 11.1908C14.7055 11.1908 15.0954 11.2795 15.4117 11.457C15.7334 11.6287 15.9706 11.8376 16.1233 12.0838C16.2814 12.3242 16.3659 12.5446 16.3768 12.7449C16.3823 12.8022 16.3632 12.8537 16.3196 12.8995C16.2814 12.9395 16.2323 12.9596 16.1723 12.9596H15.1336C15.0736 12.9596 15.0272 12.9453 14.9945 12.9166C14.9618 12.888 14.9318 12.8451 14.9046 12.7878C14.8391 12.6104 14.7546 12.4845 14.651 12.4101C14.5529 12.3356 14.4247 12.2984 14.2666 12.2984C13.8194 12.2984 13.5877 12.6018 13.5713 13.2086L13.5632 13.5349L13.5713 13.8182C13.5823 14.1273 13.645 14.3563 13.7595 14.5051C13.8794 14.6482 14.0485 14.7198 14.2666 14.7198C14.4356 14.7198 14.5692 14.6826 14.6674 14.6082C14.7655 14.5337 14.8446 14.4078 14.9046 14.2304C14.9318 14.1731 14.9618 14.1302 14.9945 14.1016C15.0272 14.0729 15.0736 14.0586 15.1336 14.0586H16.1723C16.2269 14.0586 16.2732 14.0787 16.3114 14.1187C16.355 14.1531 16.3768 14.1989 16.3768 14.2561C16.3768 14.4393 16.3005 14.6539 16.1478 14.9001C16.0006 15.1462 15.7661 15.3637 15.4444 15.5526C15.1227 15.7358 14.7219 15.8274 14.242 15.8274Z"
        fill="white" />
    <path
        d="M16.9065 9.07855C17.5717 9.08428 18.1034 9.29893 18.5014 9.72253C18.9049 10.1404 19.1067 10.7529 19.1067 11.56C19.1067 11.8061 19.1421 12.0094 19.213 12.1696C19.2839 12.3299 19.3984 12.453 19.5565 12.5388L19.6547 12.5904C19.731 12.6362 19.7856 12.6848 19.8183 12.7363C19.8564 12.7878 19.8755 12.8537 19.8755 12.9338V13.2515C19.8755 13.3317 19.8564 13.3975 19.8183 13.449C19.7856 13.5005 19.731 13.5492 19.6547 13.595L19.5484 13.6465C19.2539 13.8068 19.1067 14.1302 19.1067 14.6167C19.1067 15.4239 18.9076 16.0363 18.5096 16.4542C18.1115 16.8778 17.5799 17.0925 16.9147 17.0982H16.8656C16.8111 17.0982 16.7674 17.081 16.7347 17.0467C16.702 17.0123 16.6856 16.9665 16.6856 16.9093V16.1365C16.6856 16.0793 16.702 16.0335 16.7347 15.9991C16.7674 15.9648 16.8056 15.9476 16.8492 15.9476H16.8738C17.2227 15.919 17.4708 15.7959 17.6181 15.5784C17.7707 15.3552 17.8471 14.9945 17.8471 14.4965C17.8471 14.1416 17.9016 13.8411 18.0107 13.595C18.1197 13.3488 18.2642 13.18 18.4442 13.0884C18.2697 13.0082 18.1252 12.8394 18.0107 12.5818C17.9016 12.3242 17.8471 12.0265 17.8471 11.6888C17.8471 11.1965 17.7707 10.8388 17.6181 10.6155C17.4708 10.3923 17.2282 10.2663 16.8901 10.2377H16.8492C16.8056 10.232 16.7674 10.2119 16.7347 10.1776C16.702 10.1433 16.6856 10.1003 16.6856 10.0488V9.26745C16.6856 9.21593 16.702 9.173 16.7347 9.13866C16.7674 9.09859 16.8111 9.07855 16.8656 9.07855H16.9065Z"
        fill="white" />
</svg>
